<svg xmlns="http://www.w3.org/2000/svg" xmlns:xlink="http://www.w3.org/1999/xlink" viewBox="0 0 2868.75 2087.24"><defs><style>.cls-1{fill:none;}.cls-2{isolation:isolate;}.cls-3{clip-path:url(#clip-path);}.cls-4{fill:url(#Nueva_muestra_de_degradado_2);}.cls-5,.cls-7{mix-blend-mode:multiply;}.cls-5{fill:url(#Nueva_muestra_de_degradado_1);}.cls-6{fill:url(#Nueva_muestra_de_degradado_2-2);}.cls-7{fill:url(#Nueva_muestra_de_degradado_1-2);}.cls-8{fill:url(#Nueva_muestra_de_degradado_2-3);}</style><clipPath id="clip-path"><rect class="cls-1" x="680.65" y="1220.62" width="1239.13" height="750"/></clipPath><linearGradient id="Nueva_muestra_de_degradado_2" x1="-3386.89" y1="2144.38" x2="-1545.17" y2="2144.38" gradientTransform="translate(483.45 3923.74) rotate(156.52)" gradientUnits="userSpaceOnUse"><stop offset="0" stop-color="#73cafc"/><stop offset="0.04" stop-color="#71c4fc"/><stop offset="0.33" stop-color="#619dfb"/><stop offset="0.6" stop-color="#5581fa"/><stop offset="0.83" stop-color="#4e70fa"/><stop offset="1" stop-color="#4c6afa"/></linearGradient><radialGradient id="Nueva_muestra_de_degradado_1" cx="1638.22" cy="1193.73" r="905.15" gradientTransform="translate(1.45 140.95) scale(1.01 0.92)" gradientUnits="userSpaceOnUse"><stop offset="0" stop-color="#0a1172"/><stop offset="0.05" stop-color="#2a3084"/><stop offset="0.15" stop-color="#5b60a1"/><stop offset="0.25" stop-color="#878bba"/><stop offset="0.35" stop-color="#acaecf"/><stop offset="0.46" stop-color="#cacce1"/><stop offset="0.57" stop-color="#e2e2ee"/><stop offset="0.69" stop-color="#f2f2f8"/><stop offset="0.83" stop-color="#fcfcfd"/><stop offset="1" stop-color="#fff"/></radialGradient><linearGradient id="Nueva_muestra_de_degradado_2-2" x1="-772.31" y1="3684.19" x2="892.07" y2="3684.19" gradientTransform="translate(-1791.75 2571.3) rotate(-118.28)" xlink:href="#Nueva_muestra_de_degradado_2"/><radialGradient id="Nueva_muestra_de_degradado_1-2" cx="1205.94" cy="1162.17" r="905.15" xlink:href="#Nueva_muestra_de_degradado_1"/><linearGradient id="Nueva_muestra_de_degradado_2-3" x1="-1541.16" y1="652.98" x2="120.73" y2="652.98" gradientTransform="translate(1664.51 1391.34) rotate(64.85)" xlink:href="#Nueva_muestra_de_degradado_2"/></defs><title>Recurso 2</title><g class="cls-2"><g id="Capa_2" data-name="Capa 2"><g id="Capa_1-2" data-name="Capa 1"><g class="cls-3"><path class="cls-4" d="M1042.55,966.82c-15.75-106.61,49.86-203.25,117.75-279.12,74.19-82.9,166.22-162.49,282.32-165.7,54.87-1.53,103.41,15.21,151.79,38.88,42.82,21,89,41.33,138.2,32.86,50.15-8.63,81.13-45.42,99.12-91,18.26-46.21,32.18-92.68,56.24-136.59,47.83-87.24,118.36-164.28,204.27-214.85,41-24.13,92.1-52.25,138.61-28.4,44.44,22.8,78.34,70.66,106.83,110.17,34,47.11,61.38,98.09,83.43,151.9a27.22,27.22,0,0,0,4.94,7.95,25.34,25.34,0,0,0,12.67,11.27c175.28,75.93,313.46,224.32,382.77,402.36,33.78,86.75,56,187.54,43.91,281.41-13.45,104.14-93.43,172-194.83,186.31-100.23,14.19-199.79-26.84-285.11-74.48-49.15-27.45-96.34-58.2-144.86-86.71-22.69-13.33-45.68-26.24-69.12-38.24-19.88-10.17-41.9-22-65.2-19.28-46.25,5.41-54,52.42-48.64,90.16,6.19,43.83,9.94,87,6.93,131.38-6,88.25-31.37,174.71-73.2,253C1903,1695.39,1738.8,1817,1551.17,1834c-95.51,8.62-192.92-13.41-269.9-70.88-73.83-55.12-127.77-139.14-136.93-232.43-9.26-94.28,35.46-185.33,26.24-279.91C1159.9,1141.22,1058.24,1073,1042.55,966.82Z"/><ellipse class="cls-5" cx="1651.78" cy="1237.04" rx="890.4" ry="850.21"/><path class="cls-6" d="M1366.67,5.28C1460.58-17,1551.73,35,1624.53,90.53c79.56,60.73,157.49,137.82,169.12,242.4,5.5,49.42-5.77,94.51-23.24,140-15.46,40.24-30.15,83.48-18.88,127.26,11.48,44.63,46.64,69.82,88.62,82.63,42.6,13,85.11,22.06,126.09,40.48,81.43,36.59,155.48,94.46,207.07,168.22,24.62,35.2,53.56,79.2,35.78,123-17,41.84-57.11,76.06-90.21,104.76-39.46,34.22-82.87,62.82-129.2,86.79a24.18,24.18,0,0,0-6.72,5.06,22.93,22.93,0,0,0-9.11,12.29c-54.51,164-176.45,299.94-330,375.95-74.84,37-163.06,64.75-247.72,60.88-93.91-4.3-160.43-71.4-180.89-161.86-20.22-89.43,8.87-182.41,44.93-263,20.78-46.45,44.65-91.38,66.42-137.34,10.18-21.5,20-43.22,28.89-65.29,7.58-18.71,16.48-39.49,12.29-60.32-8.32-41.35-50.83-44.78-84.1-37.12-38.63,8.9-76.82,15.53-116.67,16.17-79.18,1.27-158.22-15.14-231.18-47-154.11-67.31-275-206.4-304.27-374.53-14.89-85.58-2.59-175.19,42.87-249C718,210.06,788.86,155,871.39,139.72c83.4-15.48,168,18,251.67,2.56C1219.94,124.38,1273.11,27.45,1366.67,5.28Z"/><ellipse class="cls-7" cx="1216.3" cy="1208.06" rx="890.4" ry="850.21"/><path class="cls-8" d="M783.17,1801.16c-94.6,17.73-182-38.9-250.94-98.28-75.35-64.89-148.1-146.12-153.37-251.69-2.48-49.9,11.41-94.62,31.5-139.41,17.77-39.65,35-82.34,26.4-126.85-8.72-45.37-42.11-72.39-83-87.32-41.52-15.14-83.18-26.33-122.77-46.84C152.29,1010,82.24,948.28,35.44,871.69,13.11,835.13-13,789.53,7.3,746.43c19.38-41.18,61.29-73.57,95.89-100.76,41.24-32.41,86.06-59,133.51-80.79a24.48,24.48,0,0,0,7-4.74,23.41,23.41,0,0,0,9.78-11.9c64-162,193.26-292.47,350.34-361.24,76.54-33.51,165.82-57,249.65-48.95,93,8.93,155,79.57,169.9,171.41,14.7,90.78-19.78,182.71-60.44,261.89C939.49,617,913.09,660.9,888.71,706c-11.41,21.09-22.43,42.42-32.63,64.14-8.64,18.42-18.73,38.85-15.82,60,5.77,41.93,47.79,47.46,81.28,41.4,38.89-7,77.22-11.81,116.83-10.49,78.7,2.62,156.2,23,226.74,58.56,149,75.15,260.68,220.75,279.62,391,9.64,86.66-8,176-57.54,247.94-47.55,69-121.25,120.73-204.12,132-83.75,11.43-165.74-26.37-249.76-15C936,1688.78,877.4,1783.49,783.17,1801.16Z"/></g></g></g></g></svg>